<?xml version="1.0" ?><svg height="21px" version="1.1" viewBox="0 0 14 21" width="14px" xmlns="http://www.w3.org/2000/svg" xmlns:sketch="http://www.bohemiancoding.com/sketch/ns" xmlns:xlink="http://www.w3.org/1999/xlink"><title/><desc/><defs/><g fill="none" fill-rule="evenodd" id="Page-1" stroke="none" stroke-width="1"><g fill="#ffffff" id="Icons-AV" transform="translate(-45.000000, -43.000000)"><g id="mic-none" transform="translate(45.000000, 43.500000)"><path d="M7,12 C8.7,12 10,10.7 10,9 L10,3 C10,1.3 8.7,0 7,0 C5.3,0 4,1.3 4,3 L4,9 C4,10.7 5.3,12 7,12 L7,12 Z M5.8,2.9 C5.8,2.2 6.3,1.7 7,1.7 C7.7,1.7 8.2,2.2 8.2,2.9 L8.2,9.1 C8.2,9.8 7.7,10.3 7,10.3 C6.3,10.3 5.8,9.8 5.8,9.1 L5.8,2.9 L5.8,2.9 Z M12.3,9 C12.3,12 9.8,14.1 7,14.1 C4.2,14.1 1.7,12 1.7,9 L0,9 C0,12.4 2.7,15.2 6,15.7 L6,19 L8,19 L8,15.7 C11.3,15.2 14,12.4 14,9 L12.3,9 L12.3,9 Z" id="Shape"/></g></g></g></svg>