<svg width="206" height="50" viewBox="0 0 206 50" fill="none" xmlns="http://www.w3.org/2000/svg">
<path d="M87.106 13.6513C83.4469 9.46483 77.8081 6.78212 71.4813 6.78212C65.2554 6.78212 59.694 9.37965 56.0352 13.4497C59.6823 7.9143 65.8735 4.18893 72.9591 3.92859C73.1535 3.93676 73.3634 3.9408 73.5885 3.95234C73.8572 3.96388 74.145 4.00261 74.4563 4.02973C75.074 4.09566 75.7664 4.21988 76.5054 4.39811C77.2401 4.60354 78.0299 4.84388 78.8155 5.216C79.6009 5.58056 80.3978 6.03795 81.1679 6.58448C81.9379 7.1311 82.6807 7.75885 83.4115 8.44533C84.1352 9.11586 84.7809 9.8682 85.368 10.682C85.6593 11.0853 85.9358 11.5039 86.1923 11.9266C86.4491 12.353 86.6783 12.7679 86.9078 13.2286C86.9739 13.3684 87.0399 13.508 87.106 13.6513Z" fill="#CB4542"/>
<path d="M89.5639 39.0159C85.6869 43.3459 80.0403 46.0714 73.7561 46.0714C66.3364 46.0714 59.8071 42.2727 56.0271 36.5236C59.6865 40.6013 65.2514 43.2026 71.4811 43.2026C76.3226 43.2026 80.7598 41.6325 84.217 39.0159H89.5639Z" fill="#CB4542"/>
<path d="M94.9304 24.9944V25.0836H90.6913C90.6834 24.9129 90.6719 24.719 90.6644 24.5021C90.6133 23.5986 90.5513 22.3041 90.361 20.7417C90.1665 19.1872 89.8436 17.3535 89.1553 15.4849C88.8131 14.5469 88.389 13.6204 87.8683 12.7016C87.6234 12.2752 87.3391 11.8138 87.0435 11.3837C86.7485 10.9495 86.4372 10.5268 86.1025 10.1197C85.4493 9.30559 84.7065 8.53827 83.913 7.87898C83.1357 7.22785 82.3228 6.61164 81.4943 6.09589C80.6663 5.57243 79.8142 5.15003 78.9825 4.82039C78.1539 4.48325 77.3297 4.28164 76.5713 4.11495C76.4504 4.0918 76.3302 4.07247 76.2134 4.05688C86.7485 5.26623 94.9304 14.1785 94.9304 24.9944Z" fill="#CB4542"/>
<path d="M34.1605 25.5373C33.6047 24.6189 32.7141 23.8472 31.4888 23.2273C30.2678 22.6027 28.2417 21.9898 25.4147 21.3821C24.2714 21.1448 23.548 20.8855 23.2409 20.6145C22.9299 20.3469 22.7702 20.0479 22.7702 19.7148C22.7702 19.2612 22.9609 18.8732 23.3423 18.5555C23.7231 18.2374 24.2908 18.0787 25.0411 18.0787C25.9552 18.0787 26.6707 18.2923 27.1918 18.7181C27.7091 19.1448 28.0514 19.8313 28.2108 20.7696L34.3124 20.4128C34.044 18.2495 33.2076 16.6718 31.8041 15.6792C30.3999 14.6862 28.3586 14.1904 25.6831 14.1904C23.5055 14.1904 21.7866 14.4664 20.5381 15.0118C19.2821 15.5549 18.3448 16.3075 17.7229 17.2606C17.1004 18.2149 16.7857 19.2263 16.7857 20.3001C16.7857 21.9325 17.396 23.2735 18.6173 24.3283C19.8225 25.3821 21.8486 26.2278 24.6835 26.863C26.418 27.243 27.5225 27.6463 27.9969 28.073C28.4751 28.4991 28.7124 28.9839 28.7124 29.5267C28.7124 30.0921 28.4638 30.5965 27.9621 31.0267C27.4642 31.4572 26.7643 31.5808 25.8424 31.5808C24.6061 31.5808 23.6376 31.2512 22.9728 30.4061C22.5604 29.8867 22.292 29.1269 22.1558 28.1311L16 28.5144C16.1826 30.62 16.9607 32.3559 18.3288 33.7248C19.7023 35.0892 22.1677 35.775 25.726 35.775C27.7558 35.775 29.4358 35.4844 30.7695 34.8994C32.0994 34.3141 33.1378 33.4613 33.8806 32.3294C34.6233 31.2012 34.9966 29.9682 34.9966 28.6268C34.9966 27.4877 34.717 26.4604 34.1605 25.5373Z" fill="white"/>
<path d="M54.9474 28.6521C54.9474 29.9626 54.5929 31.1672 53.8802 32.2803C53.8652 32.3029 53.8499 32.3294 53.8345 32.3525C53.7202 32.5273 53.5984 32.694 53.465 32.8541C52.7636 33.7391 51.8451 34.4305 50.721 34.9207C49.3907 35.506 47.71 35.7947 45.6784 35.7947C42.1155 35.7947 39.6532 35.1142 38.281 33.7428C36.9094 32.379 36.1353 30.6427 35.9524 28.5344L42.1079 28.1504C42.241 29.1459 42.5153 29.9058 42.9233 30.4299C43.59 31.2736 44.5429 31.6001 45.7852 31.6001C46.7036 31.6001 47.4129 31.4787 47.9158 31.0454C48.4115 30.6162 48.6667 30.1149 48.6667 29.5449C48.6667 29.0014 48.4266 28.5188 47.9502 28.0936C47.474 27.6644 46.372 27.2617 44.6381 26.8815C41.7988 26.2471 39.775 25.4 38.5669 24.3476C37.3512 23.2953 36.7375 21.9502 36.7375 20.3204C36.7375 19.2491 37.05 18.2345 37.675 17.2812C38.3001 16.3275 39.2339 15.579 40.4877 15.0321C41.7416 14.4848 43.4566 14.2151 45.6364 14.2151C48.3123 14.2151 50.3552 14.709 51.7574 15.7007C52.3941 16.149 52.9161 16.7227 53.3163 17.4141C53.461 17.6573 53.5906 17.9193 53.7011 18.1968C53.9758 18.8539 54.1624 19.6025 54.2614 20.4344L53.0611 20.5027L52.1082 20.5599L48.1638 20.7877C47.9997 19.8494 47.6606 19.1691 47.1458 18.7362C46.6238 18.3145 45.9073 18.0978 44.9964 18.0978C44.242 18.0978 43.6777 18.2574 43.2966 18.5767C42.9155 18.8919 42.7248 19.2793 42.7248 19.7392C42.7248 20.066 42.8776 20.366 43.1935 20.6319C43.4986 20.9094 44.2188 21.1639 45.3659 21.3993C48.1904 22.0111 50.2177 22.6267 51.4412 23.2457C51.4947 23.2725 51.5442 23.2991 51.5937 23.3257C51.9632 23.5232 52.3027 23.732 52.6073 23.9562C53.2477 24.4273 53.7506 24.9592 54.1129 25.5557C54.6694 26.4788 54.9474 27.5086 54.9474 28.6521Z" fill="white"/>
<path d="M84.1671 14.5723L79.5558 35.437H73.2064L69.5361 22.2999L65.8814 35.437H59.5358L55.0122 15.1838V15.1801L54.9282 14.8039L54.875 14.5723H61.0223L63.2325 26.2509L66.472 14.5723H72.5927L75.8397 26.2356L78.058 14.5723H84.1671Z" fill="white"/>
<path d="M95.9999 26.1807H90.6646V31.4993H95.9999V26.1807Z" fill="white"/>
<path d="M89.5599 26.1807H84.2249V31.4993H89.5599V26.1807Z" fill="white"/>
<path d="M95.9999 32.6003H90.6646V37.9186H95.9999V32.6003Z" fill="white"/>
<path d="M89.5599 32.6003H84.2249V37.9186H89.5599V32.6003Z" fill="white"/>
<path d="M113.637 25.8555H110.531V31.5H107.592V17.1055H114.652C115.661 17.125 116.436 17.2487 116.977 17.4766C117.523 17.7044 117.986 18.0397 118.363 18.4824C118.676 18.847 118.923 19.2507 119.105 19.6934C119.288 20.1361 119.379 20.6406 119.379 21.207C119.379 21.8906 119.206 22.5645 118.861 23.2285C118.516 23.8861 117.947 24.3516 117.152 24.625C117.816 24.8919 118.285 25.2728 118.559 25.7676C118.839 26.2559 118.979 27.0046 118.979 28.0137V28.9805C118.979 29.638 119.005 30.084 119.057 30.3184C119.135 30.6895 119.317 30.9629 119.604 31.1387V31.5H116.293C116.202 31.181 116.137 30.9238 116.098 30.7285C116.02 30.3249 115.977 29.9115 115.971 29.4883L115.951 28.1504C115.938 27.2324 115.769 26.6204 115.443 26.3145C115.124 26.0085 114.522 25.8555 113.637 25.8555ZM115.463 23.2383C116.062 22.9648 116.361 22.4245 116.361 21.6172C116.361 20.7448 116.072 20.1589 115.492 19.8594C115.167 19.6901 114.678 19.6055 114.027 19.6055H110.531V23.4727H113.939C114.617 23.4727 115.124 23.3945 115.463 23.2383ZM130.863 28.375C130.792 29.0065 130.463 29.6478 129.877 30.2988C128.965 31.334 127.689 31.8516 126.049 31.8516C124.695 31.8516 123.5 31.4154 122.465 30.543C121.43 29.6706 120.912 28.2513 120.912 26.2852C120.912 24.4427 121.378 23.0299 122.309 22.0469C123.246 21.0638 124.46 20.5723 125.951 20.5723C126.837 20.5723 127.634 20.7383 128.344 21.0703C129.053 21.4023 129.639 21.9264 130.102 22.6426C130.518 23.2741 130.788 24.0065 130.912 24.8398C130.984 25.3281 131.013 26.0312 131 26.9492H123.715C123.754 28.0169 124.089 28.7656 124.721 29.1953C125.105 29.4622 125.567 29.5957 126.107 29.5957C126.68 29.5957 127.146 29.4329 127.504 29.1074C127.699 28.9316 127.872 28.6875 128.021 28.375H130.863ZM128.109 25.1133C128.064 24.3776 127.839 23.821 127.436 23.4434C127.038 23.0592 126.544 22.8672 125.951 22.8672C125.307 22.8672 124.805 23.069 124.447 23.4727C124.096 23.8763 123.874 24.4232 123.783 25.1133H128.109ZM140.961 31.5L139.291 23.7461L137.602 31.5H134.711L131.723 20.8555H134.711L136.371 28.4922L137.904 20.8555H140.727L142.348 28.5215L144.008 20.8555H146.908L143.822 31.5H140.961ZM148.852 22.0078C149.587 21.0703 150.85 20.6016 152.641 20.6016C153.806 20.6016 154.841 20.8327 155.746 21.2949C156.651 21.7572 157.104 22.6296 157.104 23.9121V28.7949C157.104 29.1335 157.11 29.5436 157.123 30.0254C157.143 30.39 157.198 30.6374 157.289 30.7676C157.38 30.8978 157.517 31.0052 157.699 31.0898V31.5H154.672C154.587 31.2852 154.529 31.0833 154.496 30.8945C154.464 30.7057 154.438 30.4909 154.418 30.25C154.034 30.6667 153.591 31.0215 153.09 31.3145C152.491 31.6595 151.814 31.832 151.059 31.832C150.095 31.832 149.298 31.5586 148.666 31.0117C148.041 30.4583 147.729 29.6771 147.729 28.668C147.729 27.3594 148.233 26.4121 149.242 25.8262C149.796 25.5072 150.609 25.2793 151.684 25.1426L152.631 25.0254C153.145 24.9603 153.513 24.8789 153.734 24.7812C154.132 24.612 154.33 24.3483 154.33 23.9902C154.33 23.554 154.177 23.2546 153.871 23.0918C153.572 22.9225 153.129 22.8379 152.543 22.8379C151.885 22.8379 151.42 23.0007 151.146 23.3262C150.951 23.5671 150.821 23.8926 150.756 24.3027H148.07C148.129 23.3717 148.389 22.6068 148.852 22.0078ZM150.922 29.4883C151.182 29.7031 151.501 29.8105 151.879 29.8105C152.478 29.8105 153.028 29.6348 153.529 29.2832C154.037 28.9316 154.301 28.2904 154.32 27.3594V26.3242C154.145 26.4349 153.965 26.526 153.783 26.5977C153.607 26.6628 153.363 26.7246 153.051 26.7832L152.426 26.9004C151.84 27.0046 151.42 27.1315 151.166 27.2812C150.736 27.5352 150.521 27.929 150.521 28.4629C150.521 28.9382 150.655 29.2799 150.922 29.4883ZM164.936 23.4238C163.816 23.4238 163.064 23.7884 162.68 24.5176C162.465 24.9277 162.357 25.5592 162.357 26.4121V31.5H159.555V20.8555H162.211V22.7109C162.641 22.0013 163.015 21.5163 163.334 21.2559C163.855 20.8197 164.532 20.6016 165.365 20.6016C165.417 20.6016 165.46 20.6048 165.492 20.6113C165.531 20.6113 165.613 20.6146 165.736 20.6211V23.4727C165.561 23.4531 165.404 23.4401 165.268 23.4336C165.131 23.4271 165.02 23.4238 164.936 23.4238ZM177.064 17.125V31.5H174.359V30.0254C173.962 30.6569 173.51 31.1159 173.002 31.4023C172.494 31.6888 171.863 31.832 171.107 31.832C169.864 31.832 168.816 31.3307 167.963 30.3281C167.117 29.319 166.693 28.0267 166.693 26.4512C166.693 24.6348 167.11 23.2057 167.943 22.1641C168.783 21.1224 169.903 20.6016 171.303 20.6016C171.947 20.6016 172.52 20.7448 173.021 21.0312C173.523 21.3112 173.93 21.7018 174.242 22.2031V17.125H177.064ZM169.564 26.2461C169.564 27.2292 169.76 28.0137 170.15 28.5996C170.535 29.1921 171.12 29.4883 171.908 29.4883C172.696 29.4883 173.295 29.1953 173.705 28.6094C174.115 28.0234 174.32 27.265 174.32 26.334C174.32 25.0319 173.992 24.1009 173.334 23.541C172.93 23.2025 172.462 23.0332 171.928 23.0332C171.114 23.0332 170.515 23.3424 170.131 23.9609C169.753 24.5729 169.564 25.3346 169.564 26.2461ZM186.938 21.3438C187.771 21.8776 188.249 22.7956 188.373 24.0977H185.59C185.551 23.7396 185.45 23.4564 185.287 23.248C184.981 22.8704 184.46 22.6816 183.725 22.6816C183.119 22.6816 182.686 22.776 182.426 22.9648C182.172 23.1536 182.045 23.375 182.045 23.6289C182.045 23.9479 182.182 24.179 182.455 24.3223C182.729 24.472 183.695 24.7292 185.355 25.0938C186.462 25.3542 187.292 25.748 187.846 26.2754C188.393 26.8092 188.666 27.4766 188.666 28.2773C188.666 29.332 188.272 30.1947 187.484 30.8652C186.703 31.5293 185.492 31.8613 183.852 31.8613C182.178 31.8613 180.941 31.5098 180.141 30.8066C179.346 30.097 178.949 29.1953 178.949 28.1016H181.771C181.83 28.5964 181.957 28.9479 182.152 29.1562C182.497 29.5273 183.135 29.7129 184.066 29.7129C184.613 29.7129 185.046 29.6315 185.365 29.4688C185.691 29.306 185.854 29.0618 185.854 28.7363C185.854 28.4238 185.723 28.1862 185.463 28.0234C185.202 27.8607 184.236 27.5807 182.562 27.1836C181.358 26.8841 180.508 26.5098 180.014 26.0605C179.519 25.6178 179.271 24.9798 179.271 24.1465C179.271 23.1634 179.656 22.3203 180.424 21.6172C181.199 20.9076 182.286 20.5527 183.686 20.5527C185.014 20.5527 186.098 20.8164 186.938 21.3438Z" fill="white"/>
</svg>
