<?xml version="1.0" encoding="utf-8"?>
<!-- Generator: Adobe Illustrator 27.2.0, SVG Export Plug-In . SVG Version: 6.00 Build 0)  -->
<svg version="1.1" id="Layer_1" xmlns="http://www.w3.org/2000/svg" xmlns:xlink="http://www.w3.org/1999/xlink" x="0px" y="0px"
	 viewBox="0 0 280.4 149.4" style="enable-background:new 0 0 280.4 149.4;" xml:space="preserve">
<style type="text/css">
	.st0{fill:#CA4542;}
	.st1{fill:#FFFFFF;}
</style>
<g>
	<path class="st0" d="M239.5,38.3c-11.7-13.4-29.7-22-49.9-22c-19.9,0-37.6,8.3-49.3,21.4C151.9,20,171.7,8,194.3,7.2
		c0.6,0,1.3,0,2,0.1c0.9,0,1.8,0.2,2.8,0.2c2,0.2,4.2,0.6,6.5,1.2c2.3,0.7,4.9,1.4,7.4,2.6c2.5,1.2,5.1,2.6,7.5,4.4
		c2.5,1.8,4.8,3.8,7.2,6c2.3,2.1,4.4,4.6,6.2,7.2c0.9,1.3,1.8,2.6,2.6,4c0.8,1.4,1.6,2.7,2.3,4.2C239.1,37.4,239.3,37.9,239.5,38.3z
		"/>
	<rect x="245.6" y="78.5" class="st0" width="1.8" height="17"/>
	<path class="st0" d="M247.3,99v17h-12.8c4.3-3.9,8.1-8.4,11-13.4V99H247.3z"/>
	<path class="st0" d="M247.4,119.6c-12.4,13.9-30.4,22.6-50.5,22.6c-23.7,0-44.5-12.2-56.6-30.6c11.7,13.1,29.5,21.4,49.4,21.4
		c15.5,0,29.6-5,40.7-13.4H247.4z"/>
	<path class="st0" d="M260,99c-0.6,1.6-1.3,3.1-2,4.6c-2,4.1-4.4,8-7.1,11.7V99H260z"/>
	<path class="st0" d="M264.4,78.5c-0.3,5.9-1.4,11.6-3.2,17h-10.3v-17H264.4z"/>
	<path class="st0" d="M264.5,74.7V75H251c0-0.5-0.1-1.2-0.1-1.9c-0.2-2.9-0.4-7-1-12c-0.6-5-1.7-10.9-3.8-16.8c-1.1-3-2.4-6-4.1-8.9
		c-0.8-1.4-1.7-2.8-2.6-4.2c-0.9-1.4-1.9-2.7-3-4c-2.1-2.6-4.5-5.1-7-7.2c-2.5-2.1-5.1-4.1-7.7-5.7c-2.6-1.7-5.4-3-8-4.1
		c-2.6-1.1-5.3-1.7-7.7-2.3c-0.4-0.1-0.8-0.1-1.1-0.2C238.4,11.5,264.5,40,264.5,74.7z"/>
	<path class="st1" d="M131.6,50.4c0.5,0.8,0.9,1.6,1.2,2.5c-0.8,2.4-1.5,4.9-2,7.4l-3,0.2C128.7,57,130,53.6,131.6,50.4z"/>
	<path class="st1" d="M138.1,41.3c-0.4,0.6-0.7,1.3-1.1,1.9l-0.3-1.2c0.2-0.2,0.4-0.5,0.5-0.7H138.1z"/>
	<path class="st1" d="M133.4,98c0,0.1-0.1,0.2-0.1,0.2c-0.4,0.6-0.8,1.1-1.2,1.6c-4-7.6-6.2-16.2-6.2-25.2c0-1.8,0.1-3.6,0.3-5.3
		c1.2,0.6,2.3,1.3,3.2,2c-0.1,1.1-0.1,2.2-0.1,3.3C129.2,82.9,130.7,90.8,133.4,98z"/>
	<rect x="230.3" y="99" class="st1" width="17" height="17"/>
	<rect x="230.3" y="78.5" class="st1" width="17" height="17"/>
	<path class="st1" d="M267.9,99v17H251c0,0.1-0.1,0.1-0.1,0.2V99H267.9z"/>
	<rect x="250.9" y="78.5" class="st1" width="17" height="17"/>
	<path class="st0" d="M259.6,99.6c-0.5,1.4-1,2.7-1.6,4.1c-1.8,4.3-4.1,8.5-7,12.4c0,0.1-0.1,0.1-0.1,0.2V99.6H259.6z"/>
	<g>
		<path class="st1" d="M70.4,76.4c-1.8-2.9-4.6-5.4-8.5-7.4c-3.9-2-10.4-4-19.4-5.9c-3.7-0.8-6-1.6-6.9-2.5c-1-0.9-1.5-1.8-1.5-2.9
			c0-1.5,0.6-2.7,1.8-3.7c1.2-1,3-1.5,5.4-1.5c2.9,0,5.2,0.7,6.9,2c1.7,1.4,2.7,3.6,3.3,6.6L70.9,60c-0.9-6.9-3.5-12-8-15.2
			c-4.5-3.2-11-4.8-19.5-4.8c-7,0-12.4,0.9-16.4,2.6c-4,1.7-7,4.2-9,7.2c-2,3.1-3,6.3-3,9.7c0,5.2,2,9.5,5.8,12.9
			c3.8,3.4,10.3,6.1,19.4,8.1c5.5,1.2,9.1,2.5,10.6,3.9c1.5,1.4,2.3,2.9,2.3,4.7c0,1.8-0.8,3.4-2.4,4.8c-1.6,1.4-3.8,1.8-6.8,1.8
			c-3.9,0-7-1.1-9.2-3.8c-1.3-1.7-2.2-4.1-2.6-7.3L12.4,86c0.6,6.7,3.1,12.3,7.4,16.7c4.4,4.4,12.3,6.6,23.6,6.6
			c6.5,0,11.8-0.9,16.1-2.8c4.2-1.9,7.6-4.6,9.9-8.2c2.4-3.6,3.6-7.6,3.6-11.9C73.1,82.7,72.2,79.4,70.4,76.4L70.4,76.4z"/>
		<path class="st1" d="M136.8,86.4c0,4.2-1.1,8.1-3.4,11.6c0,0.1-0.1,0.2-0.1,0.2c-0.4,0.6-0.8,1.1-1.2,1.6
			c-2.2,2.8-5.2,5.1-8.8,6.6c-4.2,1.9-9.6,2.8-16.1,2.8c-11.4,0-19.2-2.2-23.6-6.6c-4.4-4.4-6.9-9.9-7.4-16.7l19.7-1.2
			c0.4,3.2,1.3,5.6,2.6,7.3c2.1,2.7,5.2,3.7,9.1,3.7c2.9,0,5.2-0.4,6.8-1.8c1.6-1.4,2.4-3,2.4-4.8c0-1.7-0.8-3.3-2.3-4.6
			c-1.5-1.4-5-2.7-10.6-3.9c-9.1-2-15.5-4.7-19.4-8.1c-3.9-3.4-5.8-7.7-5.8-12.9c0-3.4,1-6.7,3-9.7c2-3.1,5-5.5,9-7.2
			c4-1.8,9.5-2.6,16.4-2.6c8.5,0,15.1,1.6,19.5,4.8c2,1.4,3.7,3.3,5,5.5c0.5,0.8,0.9,1.6,1.2,2.5c0.9,2.1,1.5,4.5,1.8,7.2l-3.8,0.2
			l-3,0.2l-12.6,0.7c-0.5-3-1.6-5.2-3.2-6.6c-1.7-1.4-4-2-6.9-2c-2.4,0-4.2,0.5-5.4,1.5c-1.2,1-1.8,2.3-1.8,3.7c0,1,0.5,2,1.5,2.9
			c1,0.9,3.3,1.7,6.9,2.5c9,2,15.5,3.9,19.4,5.9c0.2,0.1,0.3,0.2,0.5,0.3c1.2,0.6,2.3,1.3,3.2,2c2,1.5,3.7,3.2,4.8,5.1
			C135.9,79.4,136.8,82.7,136.8,86.4z"/>
		<polygon class="st1" points="230.1,41.3 215.4,108.1 195.1,108.1 183.4,66.1 171.7,108.1 151.5,108.1 137,43.3 137,43.2 136.8,42 
			136.6,41.3 156.2,41.3 163.3,78.7 173.6,41.3 193.2,41.3 203.5,78.7 210.6,41.3 		"/>
	</g>
	<g>
		<g>
			<rect x="250.9" y="78.5" class="st1" width="17" height="17"/>
		</g>
		<g>
			<rect x="230.3" y="78.5" class="st1" width="17" height="17"/>
		</g>
		<g>
			<rect x="250.9" y="99" class="st1" width="17" height="17"/>
		</g>
		<g>
			<rect x="230.3" y="99" class="st1" width="17" height="17"/>
		</g>
	</g>
</g>
</svg>
